<?xml version="1.0" encoding="UTF-8" standalone="no"?>
<!-- Created with Inkscape (http://www.inkscape.org/) -->

<svg
   width="300"
   height="195.5"
   viewBox="0 0 79.375 51.726041"
   version="1.1"
   id="svg1"
   xml:space="preserve"
   xmlns="http://www.w3.org/2000/svg"
   xmlns:svg="http://www.w3.org/2000/svg"
   xmlns:rdf="http://www.w3.org/1999/02/22-rdf-syntax-ns#"
   xmlns:cc="http://creativecommons.org/ns#"
   xmlns:dc="http://purl.org/dc/elements/1.1/"><title
     id="title21">As-Sunnah Foundation (Bangladesh) - আস-সুন্নাহ ফাউন্ডেশন</title><defs
     id="defs1" /><g
     id="layer1"
     transform="translate(-54.122384,-66.631591)"><g
       id="g19"
       transform="matrix(0.27703581,0,0,0.27703581,54.213776,52.53102)"
       style="stroke-width:3.60964"><path
         id="path18"
         style="font-variation-settings:normal;opacity:1;vector-effect:none;fill:#2e9061;fill-opacity:1;fill-rule:evenodd;stroke-width:0.955049;stroke-linecap:butt;stroke-linejoin:miter;stroke-miterlimit:4;stroke-dasharray:none;stroke-dashoffset:0;stroke-opacity:1;-inkscape-stroke:none;stop-color:#000000;stop-opacity:1"
         d="m 257.06183,57.282292 v 43.141038 l -22.97844,10.12134 v 8.92504 l 38.55475,-16.98243 c 0.0915,-10.452464 4.37047,-16.771982 13.07,-16.575211 -3.45622,-6.603479 -10.0048,-8.307501 -15.61817,-8.224821 0,-8.696313 -10.50124,-14.515311 -13.02814,-20.404956 z M 46.434892,58.773157 c -5.497677,0 -9.954431,4.456754 -9.954431,9.954431 0,5.497677 4.456754,9.954431 9.954431,9.954431 5.497677,0 9.954431,-4.456754 9.954431,-9.954431 0,-5.497677 -4.456754,-9.954431 -9.954431,-9.954431 z m -36.282023,5.368664 c -5.4976768,0 -9.95443122,4.456754 -9.9544315,9.954431 -2.8e-7,5.497677 4.4567543,9.954432 9.9544315,9.954432 5.497677,0 9.954431,-4.456755 9.954431,-9.954432 0,-5.497677 -4.456754,-9.954431 -9.954431,-9.954431 z m 84.749865,21.711337 c -5.497677,9e-6 -9.954422,4.456754 -9.954431,9.954431 9e-6,5.497681 4.456754,9.954421 9.954431,9.954431 5.497676,-1e-5 9.954426,-4.45675 9.954436,-9.954431 -1e-5,-5.497679 -4.45676,-9.954425 -9.954436,-9.954431 z m 177.735406,34.452162 -15.57631,6.85333 v 110.06408 c 2.5269,-5.88964 13.02814,-11.70866 13.02814,-20.40496 5.61337,0.0827 12.16196,-1.62134 15.61817,-8.22482 -8.69952,0.19677 -13.07,-6.12234 -13.07,-16.57521 z" /><path
         id="path10"
         style="-inkscape-font-specification:Impact;fill:#000000;fill-opacity:1;stroke-width:0.955049"
         d="m 43.045951,168.91837 c -2.702486,0 -5.008685,0.31978 -6.91844,0.95963 -1.909756,0.6268 -3.297225,1.50216 -4.16202,2.62517 -0.846778,1.123 -1.270207,2.89849 -1.270207,5.32732 0,1.6845 0.29739,3.06889 0.891935,4.15272 0.612565,1.08383 1.378172,1.93236 2.297018,2.5461 0.918841,0.61373 2.792761,1.5999 5.621362,2.95795 2.828601,1.345 4.603043,2.30486 5.323706,2.87941 0.702647,0.57456 1.054199,1.79551 1.054199,3.66283 0,0.84878 -0.189575,1.48834 -0.567924,1.91926 -0.360327,0.43092 -0.918652,0.64648 -1.67535,0.64648 -0.756696,0 -1.287937,-0.1695 -1.594218,-0.50902 -0.288267,-0.33951 -0.432531,-1.10355 -0.432531,-2.29185 v -3.85868 H 31.046684 v 2.07636 c 0,2.37659 0.333327,4.2113 0.999939,5.50406 0.666616,1.29276 2.071791,2.35684 4.215763,3.19257 2.161985,0.83573 4.765575,1.25367 7.810376,1.25367 2.774553,0 5.206791,-0.35925 7.296712,-1.07745 2.089922,-0.73126 3.4951,-1.63243 4.215764,-2.7032 0.738679,-1.07077 1.107942,-2.73545 1.107942,-4.99453 0,-3.10785 -0.657278,-5.3605 -1.972489,-6.75772 -1.315207,-1.39723 -4.5042,-3.18588 -9.566858,-5.3666 -1.765624,-0.75737 -2.837993,-1.40403 -3.216341,-1.93942 -0.396365,-0.53538 -0.594279,-1.3318 -0.594279,-2.38951 0,-0.82267 0.171346,-1.43643 0.513664,-1.84124 0.360328,-0.4048 0.882714,-0.60719 1.567346,-0.60719 0.630579,0 1.081088,0.15027 1.351339,0.45061 0.270246,0.30034 0.405143,0.9986 0.405143,2.09548 v 2.35076 h 10.566797 v -1.25367 c 0,-2.52023 -0.342182,-4.30282 -1.026811,-5.34747 -0.666612,-1.05772 -2.045227,-1.93256 -4.135148,-2.62465 -2.071908,-0.69208 -4.584876,-1.03818 -7.539592,-1.03818 z m 44.915088,0 c -2.702486,0 -5.008685,0.31978 -6.918441,0.95963 -1.909755,0.6268 -3.296708,1.50216 -4.161503,2.62517 -0.846781,1.123 -1.270206,2.89849 -1.270206,5.32732 0,1.6845 0.29687,3.06889 0.891418,4.15272 0.612565,1.08383 1.378692,1.93236 2.297534,2.5461 0.918846,0.61373 2.792245,1.5999 5.620846,2.95795 2.8286,1.345 4.603559,2.30486 5.324223,2.87941 0.702646,0.57456 1.053682,1.79551 1.053682,3.66283 0,0.84878 -0.189059,1.48834 -0.567407,1.91926 -0.360332,0.43092 -0.918657,0.64648 -1.67535,0.64648 -0.756697,0 -1.288454,-0.1695 -1.594735,-0.50902 -0.288267,-0.33951 -0.432531,-1.10355 -0.432531,-2.29185 v -3.85868 H 75.961772 v 2.07636 c 0,2.37659 0.333326,4.2113 0.999939,5.50406 0.666615,1.29276 2.072311,2.35684 4.21628,3.19257 2.161989,0.83573 4.765059,1.25367 7.809859,1.25367 2.77455,0 5.206788,-0.35925 7.296712,-1.07745 2.089921,-0.73126 3.49562,-1.63243 4.216278,-2.7032 0.73868,-1.07077 1.10794,-2.73545 1.10794,-4.99453 0,-3.10785 -0.65779,-5.3605 -1.973001,-6.75772 -1.315211,-1.39723 -4.504204,-3.18588 -9.566858,-5.3666 -1.765624,-0.75737 -2.837476,-1.40403 -3.215824,-1.93942 -0.396365,-0.53538 -0.594796,-1.3318 -0.594796,-2.38951 0,-0.82267 0.171349,-1.43643 0.513664,-1.84124 0.360331,-0.4048 0.882713,-0.60719 1.567346,-0.60719 0.630578,0 1.081091,0.15027 1.351338,0.45061 0.270251,0.30034 0.405144,0.9986 0.405144,2.09548 v 2.35076 h 10.566797 v -1.25367 c 0,-2.52023 -0.34218,-4.30282 -1.026811,-5.34747 -0.666612,-1.05772 -2.04471,-1.93256 -4.134632,-2.62465 -2.071907,-0.69208 -4.585391,-1.03818 -7.540108,-1.03818 z M 6.7241374,169.58448 0.94102783,201.29624 H 12.723771 l 0.675411,-5.69991 h 4.080888 l 0.567407,5.69991 h 11.647868 l -6.512781,-31.71176 z m 98.2896126,0 v 18.76475 c 0,3.57794 0.0901,5.92824 0.27026,7.05125 0.18017,1.10994 0.76557,2.16745 1.75648,3.17293 0.99091,1.00548 2.48619,1.82164 4.48604,2.44843 1.99983,0.62679 4.30603,0.94051 6.91844,0.94051 2.36016,0 4.40543,-0.26109 6.13502,-0.78342 1.74761,-0.53538 3.15279,-1.31258 4.21577,-2.33112 1.06297,-1.0316 1.70254,-2.03041 1.91874,-2.99672 0.2162,-0.97936 0.32401,-2.67037 0.32401,-5.07307 v -21.19354 h -11.37708 v 23.36757 c 0,1.58004 -0.10833,2.58543 -0.32453,3.01635 -0.19818,0.41787 -0.65755,0.62684 -1.37821,0.62684 -0.63058,0 -1.05401,-0.18924 -1.27021,-0.56793 -0.19818,-0.39175 -0.29713,-1.27975 -0.29713,-2.66392 v -23.77891 z m 30.43018,0 v 31.71176 h 9.5126 v -14.41617 l 5.9185,14.41617 h 9.972 v -31.71176 h -9.5126 v 14.27923 l -6.3779,-14.27923 z m 29.97026,0 v 31.71176 h 9.51312 v -14.41617 l 5.9185,14.41617 h 9.972 v -31.71176 h -9.5126 v 14.27923 l -6.3779,-14.27923 z m 33.15974,0 -5.78363,31.71176 h 11.78326 l 0.67541,-5.69991 h 4.08089 l 0.56741,5.69991 h 11.64786 l -6.51278,-31.71176 z m 24.91682,0 v 31.71176 h 11.3776 v -13.31908 h 3.40496 v 13.31908 h 11.3776 v -31.71176 h -11.3776 v 11.34091 h -3.40496 V 169.58448 Z M 15.426449,176.675 c 0.576531,5.27551 1.153084,9.70897 1.72961,13.29997 h -3.891752 c 0.288265,-2.80751 1.009085,-7.24097 2.162142,-13.29997 z m 191.849271,0 c 0.57653,5.27551 1.15309,9.70897 1.72961,13.29997 h -3.89123 c 0.28825,-2.80751 1.00856,-7.24097 2.16162,-13.29997 z m -148.312394,8.89248 v 5.4653 h 14.350028 v -5.4653 z" /><path
         id="path20"
         style="fill:#8cc63f;fill-rule:evenodd;stroke-width:0.955045"
         d="m 249.65091,57.282292 c -2.5269,5.889669 -13.02814,11.708611 -13.02814,20.404956 -5.61337,-0.08268 -12.16138,1.621318 -15.61766,8.224821 8.79451,-0.198918 13.07828,6.254012 13.07828,16.911631 v 3.27783 l 15.56752,-6.856942 z M 26.47642,58.273962 C 26.823599,63.250951 20.583507,72.956557 24.242965,82.298336 21.106147,82.6574 9.3815638,85.940032 9.7089681,97.427128 16.469943,93.763551 23.464054,96.918928 26.646436,102.9379 L 6.709668,122.3083 c -5.1388319,4.99285 -6.85756607,12.54282 -4.3862956,19.26807 l 3.1896819,8.68031 c 0.4106703,1.11759 0.2517052,2.36512 -0.4261056,3.34401 l -4.14592087,5.9875 H 80.298458 c 12.149473,0 21.189192,5.0131 23.023922,12.44059 l 12.36617,-12.44059 h 133.96236 v -33.60828 l 22.98723,-10.12135 v -8.92452 l -38.55475,16.97829 v 18.78697 h -24.87084 v -10.81433 c 0,-5.69166 -0.66402,-19.41018 12.83901,-19.41018 -4.0047,-7.05751 -9.95212,-8.08065 -15.51585,-8.08065 0,-9.28629 -10.3576,-13.823207 -12.8912,-20.987862 V 142.6993 H 183.01105 V 97.001831 c 0,-5.214309 1.85517,-8.109117 6.29832,-8.355046 -0.99417,-2.311258 -3.97541,-4.377799 -7.47809,-3.983219 -0.50715,-4.846905 -5.0507,-6.979135 -6.60425,-9.915157 -1.55356,2.936022 -6.0971,5.068252 -6.60425,9.915157 -3.50267,-0.39458 -6.48392,1.671961 -7.47809,3.983219 4.44315,0.245929 6.29832,3.140737 6.29832,8.355046 V 142.6993 H 156.80903 V 83.406278 c -2.53356,7.164655 -12.89068,11.701572 -12.89068,20.987862 -5.56373,0 -11.51115,1.02314 -15.51585,8.08065 13.50303,0 12.83901,13.71852 12.83901,19.41018 v 10.81433 h -15.17944 l -13.22916,-26.02012 c -2.55671,-5.02874 -4.54426,-10.83537 -1.33274,-18.804534 L 98.962952,109.54939 c -2.856067,2.65959 -10.205293,10.26553 -7.109644,15.53962 l 13.905382,23.69097 c 1.2917,2.25658 -0.17871,4.49124 -1.3263,6.44259 C 97.870527,147.59114 83.623585,142.6993 75.483765,142.6993 H 71.108838 L 52.263477,107.05238 C 48.59447,100.11227 44.776529,92.370473 49.594389,80.641589 l -7.461043,7.24917 z m 9.294006,58.092058 c -0.06745,2.35181 1.751331,7.14256 2.321823,8.22172 l 9.574609,18.11156 H 36.004521 l -6.524667,-12.06076 c -2.37955,-4.39857 -0.973382,-6.96678 2.875794,-10.8381 z" /><path
         id="path15"
         style="font-variation-settings:normal;vector-effect:none;fill:#000000;fill-opacity:1;stroke:none;stroke-width:0.955049;stroke-linecap:butt;stroke-linejoin:miter;stroke-miterlimit:4;stroke-dasharray:none;stroke-dashoffset:0;stroke-opacity:1;-inkscape-stroke:none;stop-color:#000000"
         d="m 175.22703,51.285758 c -2.29925,7.972856 -7.22156,10.997393 -11.52178,14.024467 -11.99671,8.444931 -25.96946,8.796012 -28.51247,29.98525 -5.34463,1.440263 -9.41088,5.077975 -10.7518,9.883635 2.32722,-3.08419 7.24821,-7.284523 13.7542,-7.018693 2.58937,-27.957698 31.5772,-25.222069 37.03185,-45.57913 5.45465,20.357061 34.44248,17.621432 37.03185,45.57913 6.50599,-0.26583 11.42698,3.934503 13.7542,7.018693 -1.34092,-4.80566 -5.40717,-8.443372 -10.7518,-9.883635 -2.54301,-21.189238 -16.51575,-21.540319 -28.51247,-29.98525 -4.30022,-3.027074 -9.22253,-6.051611 -11.52178,-14.024467 z" /><g
         id="g16"
         style="stroke-width:3.60964"><path
           id="path21"
           style="vector-effect:none;fill:#ed962f;fill-rule:evenodd;stroke-width:0.955045;stop-color:#000000"
           d="M 0.14738464,211.29254 H 249.65091 v 25.93018 H 0.14738464 Z" /><path
           id="path16"
           style="font-size:23.1348px;line-height:1.25;font-family:'Sonny Cond';-inkscape-font-specification:'Sonny Cond';letter-spacing:5.95312px;fill:#ffffff;stroke-width:0.955049"
           d="m 48.701475,215.82507 c -2.421437,0 -4.403057,0.78638 -5.945373,2.35955 -1.526895,1.57315 -2.2903,3.59393 -2.2903,6.06164 0,2.4677 0.763405,4.48796 2.2903,6.06113 1.542316,1.57316 3.523936,2.35955 5.945373,2.35955 2.421438,0 4.395743,-0.78639 5.922636,-2.35955 1.542316,-1.57317 2.313554,-3.59343 2.313554,-6.06113 0,-2.46771 -0.771238,-4.48849 -2.313554,-6.06164 -1.526893,-1.57317 -3.501198,-2.35955 -5.922636,-2.35955 z m 148.416255,0 c -2.42142,0 -4.40357,0.78638 -5.94589,2.35955 -1.52688,1.57315 -2.2903,3.59393 -2.2903,6.06164 0,2.4677 0.76342,4.48796 2.2903,6.06113 1.54232,1.57316 3.52447,2.35955 5.94589,2.35955 2.42145,0 4.39523,-0.78639 5.92212,-2.35955 1.54232,-1.57317 2.31356,-3.59343 2.31356,-6.06113 0,-2.46771 -0.77124,-4.48849 -2.31356,-6.06164 -1.52689,-1.57317 -3.50067,-2.35955 -5.92212,-2.35955 z m -175.445096,0.32401 v 16.19436 h 2.961576 v -6.29264 h 7.009392 v -2.56832 H 24.63421 v -4.7656 h 8.027417 v -2.5678 z m 43.994214,0 v 9.20771 c 0,2.2055 0.632341,3.97878 1.897042,5.3206 1.264699,1.34182 2.938237,2.0128 5.020365,2.0128 2.082128,0 3.755667,-0.67098 5.020365,-2.0128 1.264701,-1.34182 1.897042,-3.1151 1.897042,-5.3206 v -9.20771 h -2.961576 v 9.20771 c 0,1.41893 -0.362384,2.5677 -1.087272,3.44682 -0.724889,0.86368 -1.680975,1.29552 -2.868559,1.29552 -1.187584,0 -2.143669,-0.43184 -2.868559,-1.29552 -0.724888,-0.87912 -1.087272,-2.02789 -1.087272,-3.44682 v -9.20771 z m 23.026501,0 v 16.19436 h 2.961577 v -10.98899 l 8.513684,10.98899 h 2.33629 v -16.19436 h -2.96105 v 11.24324 l -8.582939,-11.24324 z m 23.235271,0 v 16.19436 h 5.78362 c 2.54483,0 4.58806,-0.74043 6.13038,-2.22105 1.54232,-1.48063 2.31355,-3.43927 2.31355,-5.87613 0,-2.43686 -0.77123,-4.39602 -2.31355,-5.87664 -1.54232,-1.48063 -3.58555,-2.22054 -6.13038,-2.22054 z m 28.30111,0 -6.84816,16.19436 h 3.16983 l 1.45728,-3.74809 h 7.21816 l 1.45728,3.74809 h 3.14658 l -6.82491,-16.19436 z m 14.74432,0 v 2.5678 h 5.32113 v 13.62656 h 2.96105 v -13.62656 h 5.32113 v -2.5678 z m 21.98574,0 v 16.19436 h 2.96106 v -16.19436 z m 37.35431,0 v 16.19436 h 2.96106 v -10.98899 l 8.51369,10.98899 h 2.33681 v -16.19436 h -2.96106 v 11.24324 l -8.58345,-11.24324 z m -165.612625,2.26705 c 1.542318,0 2.799687,0.54774 3.771346,1.64279 0.987083,1.07962 1.48053,2.47536 1.48053,4.18734 0,1.71197 -0.493447,3.11555 -1.48053,4.2106 -0.971659,1.07962 -2.229028,1.61902 -3.771346,1.61902 -1.542316,0 -2.807001,-0.5394 -3.794084,-1.61902 -0.97166,-1.09505 -1.457275,-2.49863 -1.457275,-4.2106 0,-1.71198 0.485615,-3.10772 1.457275,-4.18734 0.987083,-1.09505 2.251768,-1.64279 3.794084,-1.64279 z m 148.416255,0 c 1.54232,0 2.79917,0.54774 3.77083,1.64279 0.98708,1.07962 1.48053,2.47536 1.48053,4.18734 0,1.71197 -0.49345,3.11555 -1.48053,4.2106 -0.97166,1.07962 -2.22851,1.61902 -3.77083,1.61902 -1.5423,0 -2.807,-0.5394 -3.79408,-1.61902 -0.97167,-1.09505 -1.45779,-2.49863 -1.45779,-4.2106 0,-1.71198 0.48612,-3.10772 1.45779,-4.18734 0.98708,-1.09505 2.25178,-1.64279 3.79408,-1.64279 z m -82.22805,0.30075 h 2.54455 c 1.69654,0 3.06931,0.50911 4.11809,1.52704 1.04878,1.01793 1.57355,2.35206 1.57355,4.00234 0,1.65028 -0.52477,2.98441 -1.57355,4.00234 -1.04878,1.01793 -2.42155,1.52652 -4.11809,1.52652 h -2.54455 z m 26.70483,0.80977 h 0.0698 l 2.49856,6.5009 h -5.06688 z" /></g></g></g><metadata
     id="metadata21"><rdf:RDF><cc:Work
         rdf:about=""><dc:title>As-Sunnah Foundation (Bangladesh) - আস-সুন্নাহ ফাউন্ডেশন</dc:title></cc:Work></rdf:RDF></metadata></svg>
